<svg xmlns="http://www.w3.org/2000/svg" width="34.488" height="34.488" viewBox="0 0 34.488 34.488"><defs><style>.a{fill:#030000;fill-rule:evenodd;}</style></defs><path class="a" d="M17.244,3.066a52.874,52.874,0,0,1,6.9.192,8.887,8.887,0,0,1,3.257.575,6.729,6.729,0,0,1,3.257,3.257,8.887,8.887,0,0,1,.575,3.257c0,1.724.192,2.3.192,6.9a52.873,52.873,0,0,1-.192,6.9,8.887,8.887,0,0,1-.575,3.257A6.729,6.729,0,0,1,27.4,30.656a8.887,8.887,0,0,1-3.257.575c-1.724,0-2.3.192-6.9.192a52.873,52.873,0,0,1-6.9-.192,8.887,8.887,0,0,1-3.257-.575A6.729,6.729,0,0,1,3.832,27.4a8.887,8.887,0,0,1-.575-3.257c0-1.724-.192-2.3-.192-6.9a52.874,52.874,0,0,1,.192-6.9,8.887,8.887,0,0,1,.575-3.257A6.881,6.881,0,0,1,5.173,5.173,3.239,3.239,0,0,1,7.089,3.832a8.887,8.887,0,0,1,3.257-.575,52.874,52.874,0,0,1,6.9-.192m0-3.066a56.613,56.613,0,0,0-7.089.192A11.829,11.829,0,0,0,5.94.958,7.5,7.5,0,0,0,2.874,2.874,7.5,7.5,0,0,0,.958,5.94a8.73,8.73,0,0,0-.766,4.215A56.613,56.613,0,0,0,0,17.244a56.612,56.612,0,0,0,.192,7.089,11.829,11.829,0,0,0,.766,4.215,7.5,7.5,0,0,0,1.916,3.066A7.5,7.5,0,0,0,5.94,33.53a11.829,11.829,0,0,0,4.215.766,56.612,56.612,0,0,0,7.089.192,56.612,56.612,0,0,0,7.089-.192,11.829,11.829,0,0,0,4.215-.766,8.039,8.039,0,0,0,4.982-4.982,11.829,11.829,0,0,0,.766-4.215c0-1.916.192-2.491.192-7.089a56.612,56.612,0,0,0-.192-7.089A11.829,11.829,0,0,0,33.53,5.94a7.5,7.5,0,0,0-1.916-3.066A7.5,7.5,0,0,0,28.548.958,11.829,11.829,0,0,0,24.333.192,56.612,56.612,0,0,0,17.244,0m0,8.43A8.672,8.672,0,0,0,8.43,17.244,8.814,8.814,0,1,0,17.244,8.43m0,14.562A5.645,5.645,0,0,1,11.5,17.244,5.645,5.645,0,0,1,17.244,11.5a5.645,5.645,0,0,1,5.748,5.748,5.645,5.645,0,0,1-5.748,5.748m9.2-17.052a2.108,2.108,0,1,0,2.108,2.108A2.126,2.126,0,0,0,26.441,5.94"/></svg>