<svg xmlns="http://www.w3.org/2000/svg" width="34.488" height="27.974" viewBox="0 0 34.488 27.974"><defs><style>.a{fill:#030000;fill-rule:evenodd;}</style></defs><path class="a" d="M48.921,29.974c13.029,0,20.118-10.73,20.118-20.118V8.9a15.574,15.574,0,0,0,3.449-3.64,15.905,15.905,0,0,1-4.024,1.15A7.454,7.454,0,0,0,71.53,2.575,17.574,17.574,0,0,1,67.123,4.3,6.843,6.843,0,0,0,61.95,2a7.2,7.2,0,0,0-7.089,7.089,3.736,3.736,0,0,0,.192,1.533A19.809,19.809,0,0,1,40.491,3.15a7.338,7.338,0,0,0-.958,3.64A7.613,7.613,0,0,0,42.6,12.73a6.459,6.459,0,0,1-3.257-.958h0a7,7,0,0,0,5.748,6.9,5.907,5.907,0,0,1-1.916.192,3.261,3.261,0,0,1-1.341-.192,7.259,7.259,0,0,0,6.706,4.982,14.466,14.466,0,0,1-8.814,3.066A5.3,5.3,0,0,1,38,26.525a18.085,18.085,0,0,0,10.921,3.449" transform="translate(-38 -2)"/></svg>