<svg xmlns="http://www.w3.org/2000/svg" width="21.949" height="15.09" viewBox="0 0 21.949 15.09"><defs><style>.a{fill:#0a0a0a;}</style></defs><path class="a" d="M21.016,81.454c-.6-1.059-1.241-1.254-2.557-1.328C17.145,80.037,13.84,80,10.977,80s-6.174.037-7.487.125-1.96.269-2.561,1.329S0,84.333,0,87.541v.011c0,3.194.316,5.029.929,6.076s1.247,1.251,2.56,1.34,4.62.122,7.489.122,6.168-.045,7.483-.121,1.962-.281,2.557-1.34c.619-1.047.931-2.882.931-6.076v-.011C21.949,84.333,21.636,82.512,21.016,81.454ZM8.231,91.66V83.429l6.859,4.115Z" transform="translate(0 -80)"/></svg>