<svg xmlns="http://www.w3.org/2000/svg" width="33.27" height="33.32" viewBox="0 0 33.27 33.32"><defs><style>.a{fill:#ec3933;}.a,.b{stroke:#f3f5f6;}.b{fill:#0680f9;}</style></defs><g transform="translate(-490.69 -3229.412)"><path class="a" d="M515.41,195.206A8.089,8.089,0,0,1,522,201.788a1.334,1.334,0,0,0,1.323,1.117,1.179,1.179,0,0,0,.213-.02.012.012,0,0,0,.01,0,1.336,1.336,0,0,0,1.1-1.549,10.755,10.755,0,0,0-8.782-8.772h0a1.341,1.341,0,0,0-.442,2.646Z" transform="translate(-6.895 3043.078)"/><path class="b" d="M44.845,92.271a3.529,3.529,0,0,0-2.567-1.166,3.621,3.621,0,0,0-2.58,1.149l-1.863,1.863c-.046-.023-.092-.046-.134-.069L37.6,94c-.2-.1-.429-.216-.619-.334A22.4,22.4,0,0,1,31.645,88.8a13.066,13.066,0,0,1-1.595-2.443c.468-.442.9-.884,1.313-1.3.092-.092.183-.187.278-.282s.187-.19.282-.285a3.452,3.452,0,0,0,0-5.213l-1.811-1.811c-.1-.1-.21-.21-.311-.314s-.206-.21-.308-.311l-.144-.147c-.357-.363-.727-.74-1.1-1.084A3.571,3.571,0,0,0,25.708,74.5a3.7,3.7,0,0,0-2.574,1.107s-.007,0-.007.007l-2.269,2.266a5.287,5.287,0,0,0-1.568,3.356v0a11.866,11.866,0,0,0,.878,5.112,29.045,29.045,0,0,0,5.148,8.592,31.772,31.772,0,0,0,10.537,8.252h0a16.541,16.541,0,0,0,6,1.768h.026c.134.007.275.013.422.013a5.429,5.429,0,0,0,4.142-1.781l.016-.016a.326.326,0,0,0,.033-.036,14.774,14.774,0,0,1,1.126-1.162c.291-.278.589-.563.878-.871A3.752,3.752,0,0,0,49.635,98.5a3.655,3.655,0,0,0-1.156-2.584l-3.635-3.641Zm-.36,9.126a2.74,2.74,0,0,1-2.161.9c-.085,0-.18-.007-.278-.013a14.1,14.1,0,0,1-5.013-1.506,28.849,28.849,0,0,1-9.657-7.554h0a26.471,26.471,0,0,1-4.686-7.8,9.123,9.123,0,0,1-.72-3.962,2.564,2.564,0,0,1,.792-1.686l2.253-2.253a1.062,1.062,0,0,1,.7-.347,1.019,1.019,0,0,1,.678.35l.01.01c.39.367.77.753,1.172,1.159l.013.013c.193.2.416.429.642.648L30.04,81.16c.527.527.527.9,0,1.424-.19.19-.383.383-.573.58l-.134.138c-.508.514-.986,1-1.506,1.46a.152.152,0,0,0-.023.023l-.033.033a1.772,1.772,0,0,0-.445,1.961c.007.02.013.036.02.052h0a.116.116,0,0,0,.013.029,14.989,14.989,0,0,0,2.214,3.605s0,0,0,.007a24.924,24.924,0,0,0,6,5.459,9.71,9.71,0,0,0,.855.468c.2.1.432.219.622.334a.244.244,0,0,0,.039.023l.01.007c.02.01.039.023.062.033a1.867,1.867,0,0,0,.858.213,1.8,1.8,0,0,0,1.326-.6l2.266-2.266a1.073,1.073,0,0,1,.688-.36,1.008,1.008,0,0,1,.648.357l.007.007,3.658,3.658c.36.36.606.786-.029,1.454l0,0c-.2.216-.413.422-.639.642-.049.046-.1.095-.147.144a15.432,15.432,0,0,0-1.31,1.346Z" transform="translate(471.926 3157.255)"/><path class="a" d="M538.117,32.962A17.423,17.423,0,0,0,523.9,18.76a1.34,1.34,0,0,0-.445,2.643,14.748,14.748,0,0,1,12.014,12.011,1.334,1.334,0,0,0,1.323,1.117h.01a1.09,1.09,0,0,0,.2-.02.012.012,0,0,0,.01,0,1.341,1.341,0,0,0,1.1-1.546Z" transform="translate(-14.68 3211.187)"/></g></svg>