<svg xmlns="http://www.w3.org/2000/svg" width="31.242" height="31.103" viewBox="0 0 31.242 31.103"><defs><style>.a{fill:#0680f9;}.b{fill:#ec3933;}</style></defs><g transform="translate(-1344.86 -3174)"><path class="a" d="M38.045,19.652a.627.627,0,0,0-.108-.141s0-.009-.009-.014L34.8,16.928v-4.27a.473.473,0,0,0-.471-.471H29.025L22.846,7.111a.475.475,0,0,0-.6,0l-6.235,5.076H10.63a.473.473,0,0,0-.471.471v4.293L7.034,19.5a.475.475,0,0,0-.174.368V37.637a.473.473,0,0,0,.471.471h30.3a.438.438,0,0,0,.137-.024.068.068,0,0,1,.033-.009.229.229,0,0,1,.033-.014l.033-.014a.125.125,0,0,0,.028-.024.259.259,0,0,0,.042-.033c.009-.009.019-.014.028-.024h0A.259.259,0,0,0,38,37.924c.009-.014.019-.024.028-.038a.514.514,0,0,0,.028-.052c0-.014.009-.024.014-.038s.009-.024.014-.038v0h0a.513.513,0,0,0,.019-.123V19.864a.5.5,0,0,0-.042-.184Zm-.891,1.037V36.812L23.473,28.748l11.094-6.537ZM21.616,28.748,7.935,36.812V20.689Zm15.19-8.95L34.8,20.981V18.149ZM22.545,8.082l5,4.1H17.5ZM11.1,13.129H33.856v8.408l-.17.1L22.545,28.2,11.1,21.457V13.129ZM10.159,20.9l-1.946-1.15,1.946-1.588ZM9.193,37.165l13.352-7.871L35.9,37.165Z" transform="translate(1338 3166.995)"/><path class="b" d="M22.611,25.943H38.635a.471.471,0,1,0,0-.943H22.611a.471.471,0,0,0,0,.943Z" transform="translate(1329.921 3157.481)"/><path class="b" d="M22.611,31.943H38.635a.471.471,0,1,0,0-.943H22.611a.471.471,0,1,0,0,.943Z" transform="translate(1329.921 3154.309)"/><path class="b" d="M22.611,37.943H38.635a.471.471,0,1,0,0-.943H22.611a.471.471,0,1,0,0,.943Z" transform="translate(1329.921 3151.136)"/></g></svg>